<svg width="177" height="40" viewBox="0 0 177 40" fill="none" xmlns="http://www.w3.org/2000/svg">
<path d="M2.87695 34.3253V5.23438H8.14684V17.5497H21.627V5.23438H26.911V34.3253H21.627V21.9673H8.14684V34.3253H2.87695Z" fill="white"/>
<path d="M41.2744 34.7514C39.0869 34.7514 37.1977 34.2969 35.6068 33.3878C34.0253 32.4692 32.8085 31.1719 31.9562 29.4957C31.1039 27.8101 30.6778 25.8262 30.6778 23.544C30.6778 21.2997 31.1039 19.33 31.9562 17.6349C32.818 15.9304 34.0206 14.6046 35.5642 13.6577C37.1077 12.7012 38.9212 12.223 41.0045 12.223C42.3492 12.223 43.6181 12.4408 44.8113 12.8764C46.014 13.3026 47.0746 13.9654 47.9931 14.8651C48.9212 15.7647 49.6503 16.9105 50.1806 18.3026C50.7109 19.6851 50.9761 21.3329 50.9761 23.2457V24.8224H33.0926V21.3565H46.0471C46.0377 20.3717 45.8246 19.4957 45.4079 18.7287C44.9912 17.9522 44.4089 17.3414 43.6608 16.8963C42.9221 16.4512 42.0604 16.2287 41.0755 16.2287C40.0244 16.2287 39.1011 16.4844 38.3056 16.9957C37.5102 17.4976 36.8899 18.1605 36.4449 18.9844C36.0092 19.7988 35.7867 20.6937 35.7772 21.669V24.6946C35.7772 25.9635 36.0092 27.0526 36.4733 27.9616C36.9373 28.8613 37.5859 29.5526 38.4193 30.0355C39.2526 30.509 40.228 30.7457 41.3454 30.7457C42.0935 30.7457 42.7706 30.6416 43.3767 30.4332C43.9827 30.2154 44.5083 29.8982 44.9534 29.4815C45.3984 29.0649 45.7346 28.5488 45.9619 27.9332L50.763 28.473C50.46 29.7419 49.8824 30.8499 49.0301 31.7969C48.1873 32.7344 47.1077 33.4635 45.7914 33.9844C44.4752 34.4957 42.9695 34.7514 41.2744 34.7514Z" fill="white"/>
<path d="M60.8046 34.7656C59.4221 34.7656 58.1768 34.5194 57.0689 34.027C55.9704 33.5251 55.0992 32.7865 54.4552 31.8111C53.8208 30.8357 53.5035 29.633 53.5035 28.2031C53.5035 26.9721 53.7308 25.9541 54.1853 25.1491C54.6399 24.3442 55.2601 23.7003 56.0461 23.2173C56.8321 22.7344 57.7175 22.3698 58.7024 22.1236C59.6967 21.8679 60.7242 21.6832 61.7848 21.5696C63.0632 21.437 64.1001 21.3187 64.8956 21.2145C65.691 21.1009 66.2687 20.9304 66.6285 20.7031C66.9978 20.4664 67.1825 20.1018 67.1825 19.6094V19.5241C67.1825 18.4541 66.8653 17.6255 66.2308 17.0384C65.5963 16.4512 64.6825 16.1577 63.4893 16.1577C62.2298 16.1577 61.2308 16.4323 60.4921 16.9815C59.763 17.5308 59.2706 18.1794 59.0149 18.9276L54.2137 18.2457C54.5925 16.92 55.2175 15.812 56.0887 14.9219C56.96 14.0223 58.0253 13.3499 59.2848 12.9048C60.5442 12.4503 61.9363 12.223 63.4609 12.223C64.512 12.223 65.5584 12.3461 66.6001 12.5923C67.6418 12.8385 68.5935 13.2457 69.4552 13.8139C70.317 14.3726 71.0082 15.1349 71.5291 16.1009C72.0594 17.0668 72.3245 18.2741 72.3245 19.723V34.3253H67.3814V31.3281H67.2109C66.8984 31.9342 66.4581 32.5024 65.8899 33.0327C65.3312 33.5535 64.6257 33.9749 63.7734 34.2969C62.9306 34.6094 61.941 34.7656 60.8046 34.7656ZM62.1399 30.9872C63.1721 30.9872 64.067 30.7836 64.8245 30.3764C65.5821 29.9598 66.1645 29.4105 66.5717 28.7287C66.9884 28.0469 67.1967 27.3035 67.1967 26.4986V23.9276C67.0357 24.0601 66.7611 24.1832 66.3728 24.2969C65.994 24.4105 65.5679 24.5099 65.0944 24.5952C64.6209 24.6804 64.1522 24.7562 63.6882 24.8224C63.2242 24.8887 62.8217 24.9455 62.4808 24.9929C61.7137 25.0971 61.0272 25.2675 60.4211 25.5043C59.8151 25.741 59.3368 26.0724 58.9865 26.4986C58.6361 26.9152 58.4609 27.455 58.4609 28.1179C58.4609 29.0649 58.8065 29.7798 59.4978 30.2628C60.1891 30.7457 61.0698 30.9872 62.1399 30.9872Z" fill="white"/>
<path d="M81.837 5.23438V34.3253H76.695V5.23438H81.837Z" fill="white"/>
<path d="M97.2196 12.5071V16.4844H84.6769V12.5071H97.2196ZM87.7735 7.27983H92.9156V27.7628C92.9156 28.4541 93.0198 28.9844 93.2281 29.3537C93.4459 29.7135 93.73 29.9598 94.0804 30.0923C94.4307 30.2249 94.819 30.2912 95.2451 30.2912C95.5671 30.2912 95.8607 30.2675 96.1258 30.2202C96.4004 30.1728 96.6088 30.1302 96.7508 30.0923L97.6173 34.1122C97.3427 34.2069 96.9497 34.3111 96.4383 34.4247C95.9364 34.5383 95.3209 34.6046 94.5917 34.6236C93.3038 34.6615 92.1438 34.4673 91.1116 34.0412C90.0794 33.6056 89.2603 32.9332 88.6542 32.0241C88.0576 31.1151 87.7641 29.9787 87.7735 28.6151V7.27983Z" fill="white"/>
<path d="M106.331 21.5412V34.3253H101.189V5.23438H106.217V16.2145H106.473C106.984 14.9834 107.775 14.0128 108.845 13.3026C109.925 12.5829 111.298 12.223 112.964 12.223C114.479 12.223 115.8 12.5402 116.927 13.1747C118.054 13.8092 118.925 14.7372 119.541 15.9588C120.166 17.1804 120.479 18.6719 120.479 20.4332V34.3253H115.336V21.2287C115.336 19.7609 114.958 18.6198 114.2 17.8054C113.452 16.9815 112.401 16.5696 111.047 16.5696C110.138 16.5696 109.323 16.7685 108.604 17.1662C107.893 17.5545 107.335 18.1179 106.927 18.8565C106.53 19.5952 106.331 20.4901 106.331 21.5412Z" fill="white"/>
<path d="M125.147 34.3253V5.23438H136.056C138.291 5.23438 140.166 5.65104 141.681 6.48437C143.206 7.31771 144.357 8.46354 145.133 9.92187C145.919 11.3707 146.312 13.0185 146.312 14.8651C146.312 16.7306 145.919 18.3878 145.133 19.8366C144.347 21.2855 143.187 22.4266 141.653 23.2599C140.119 24.0838 138.23 24.4957 135.985 24.4957H128.755V20.1634H135.275C136.582 20.1634 137.652 19.9361 138.485 19.4815C139.319 19.027 139.934 18.402 140.332 17.6065C140.739 16.8111 140.943 15.8973 140.943 14.8651C140.943 13.8329 140.739 12.9238 140.332 12.1378C139.934 11.3518 139.314 10.741 138.471 10.3054C137.638 9.86032 136.563 9.63778 135.247 9.63778H130.417V34.3253H125.147Z" fill="white"/>
<path d="M150.089 34.3253V5.23438H155.359V17.5497H168.839V5.23438H174.124V34.3253H168.839V21.9673H155.359V34.3253H150.089Z" fill="white"/>
</svg>
