<svg width="95" height="36" viewBox="0 0 95 36" fill="none" xmlns="http://www.w3.org/2000/svg">
<path d="M1.58447 25.682V10.082H4.41045V16.6861H11.6392V10.082H14.4728V25.682H11.6392V19.0551H4.41045V25.682H1.58447Z" fill="#007AFF"/>
<path d="M22.1751 25.9105C21.0021 25.9105 19.989 25.6668 19.1358 25.1793C18.2878 24.6867 17.6353 23.991 17.1782 23.0922C16.7212 22.1883 16.4927 21.1244 16.4927 19.9006C16.4927 18.6971 16.7212 17.6408 17.1782 16.7318C17.6403 15.8178 18.2853 15.1068 19.113 14.599C19.9407 14.0861 20.9132 13.8297 22.0304 13.8297C22.7515 13.8297 23.4319 13.9465 24.0718 14.1801C24.7167 14.4086 25.2854 14.7641 25.778 15.2465C26.2757 15.7289 26.6667 16.3434 26.9511 17.0898C27.2354 17.8312 27.3776 18.7148 27.3776 19.7406V20.5861H17.7876V18.7275H24.7345C24.7294 18.1994 24.6151 17.7297 24.3917 17.3184C24.1683 16.902 23.856 16.5744 23.4548 16.3357C23.0587 16.0971 22.5966 15.9777 22.0685 15.9777C21.5048 15.9777 21.0097 16.1148 20.5831 16.3891C20.1565 16.6582 19.8239 17.0137 19.5853 17.4555C19.3517 17.8922 19.2323 18.3721 19.2272 18.8951V20.5176C19.2272 21.198 19.3517 21.782 19.6005 22.2695C19.8493 22.752 20.1972 23.1227 20.644 23.3816C21.0909 23.6355 21.614 23.7625 22.2132 23.7625C22.6144 23.7625 22.9774 23.7066 23.3024 23.5949C23.6274 23.4781 23.9093 23.308 24.1479 23.0846C24.3866 22.8611 24.5669 22.5844 24.6888 22.2543L27.2634 22.5437C27.1009 23.2242 26.7911 23.8184 26.3341 24.3262C25.8821 24.8289 25.3032 25.2199 24.5974 25.4992C23.8915 25.7734 23.0841 25.9105 22.1751 25.9105Z" fill="#007AFF"/>
<path d="M32.6482 25.9182C31.9068 25.9182 31.239 25.7861 30.6449 25.5221C30.0558 25.2529 29.5886 24.8568 29.2433 24.3338C28.9031 23.8107 28.733 23.1658 28.733 22.399C28.733 21.7389 28.8548 21.193 29.0986 20.7613C29.3423 20.3297 29.675 19.9844 30.0964 19.7254C30.5179 19.4664 30.9927 19.2709 31.5209 19.1389C32.0541 19.0018 32.605 18.9027 33.1738 18.8418C33.8593 18.7707 34.4154 18.7072 34.8419 18.6514C35.2685 18.5904 35.5783 18.499 35.7712 18.3771C35.9693 18.2502 36.0683 18.0547 36.0683 17.7906V17.7449C36.0683 17.1711 35.8982 16.7268 35.558 16.4119C35.2177 16.0971 34.7277 15.9396 34.0878 15.9396C33.4125 15.9396 32.8767 16.0869 32.4806 16.3814C32.0896 16.676 31.8255 17.0238 31.6884 17.425L29.1138 17.0594C29.3169 16.3484 29.6521 15.7543 30.1193 15.277C30.5865 14.7945 31.1578 14.434 31.8332 14.1953C32.5085 13.9516 33.255 13.8297 34.0726 13.8297C34.6363 13.8297 35.1974 13.8957 35.756 14.0277C36.3146 14.1598 36.825 14.3781 37.2871 14.6828C37.7492 14.9824 38.1199 15.3912 38.3992 15.9092C38.6835 16.4271 38.8257 17.0746 38.8257 17.8516V25.682H36.175V24.0748H36.0835C35.916 24.3998 35.6798 24.7045 35.3751 24.9889C35.0755 25.2682 34.6972 25.4941 34.2402 25.6668C33.7882 25.8344 33.2576 25.9182 32.6482 25.9182ZM33.3642 23.892C33.9177 23.892 34.3976 23.7828 34.8039 23.5645C35.2101 23.341 35.5224 23.0465 35.7408 22.6809C35.9642 22.3152 36.0759 21.9166 36.0759 21.485V20.1062C35.9896 20.1773 35.8423 20.2434 35.6341 20.3043C35.431 20.3652 35.2025 20.4186 34.9486 20.4643C34.6947 20.51 34.4433 20.5506 34.1945 20.5861C33.9457 20.6217 33.7298 20.6521 33.547 20.6775C33.1357 20.7334 32.7675 20.8248 32.4425 20.9518C32.1175 21.0787 31.8611 21.2564 31.6732 21.485C31.4853 21.7084 31.3914 21.9978 31.3914 22.3533C31.3914 22.8611 31.5767 23.2445 31.9474 23.5035C32.3181 23.7625 32.7904 23.892 33.3642 23.892Z" fill="#007AFF"/>
<path d="M43.9268 10.082V25.682H41.1694V10.082H43.9268Z" fill="#007AFF"/>
<path d="M52.1757 13.982V16.1148H45.4497V13.982H52.1757ZM47.1103 11.1789H49.8677V22.1629C49.8677 22.5336 49.9235 22.818 50.0353 23.016C50.1521 23.209 50.3044 23.341 50.4923 23.4121C50.6802 23.4832 50.8884 23.5187 51.1169 23.5187C51.2896 23.5187 51.447 23.5061 51.5892 23.4807C51.7364 23.4553 51.8481 23.4324 51.9243 23.4121L52.389 25.5678C52.2417 25.6186 52.031 25.6744 51.7567 25.7353C51.4876 25.7963 51.1575 25.8318 50.7665 25.842C50.0759 25.8623 49.4538 25.7582 48.9003 25.5297C48.3468 25.2961 47.9075 24.9355 47.5825 24.448C47.2626 23.9605 47.1052 23.3512 47.1103 22.6199V11.1789Z" fill="#007AFF"/>
<path d="M57.0616 18.8266V25.682H54.3042V10.082H57.0006V15.9701H57.1378C57.412 15.31 57.836 14.7895 58.4098 14.4086C58.9887 14.0227 59.7251 13.8297 60.6188 13.8297C61.4313 13.8297 62.1397 13.9998 62.744 14.34C63.3483 14.6803 63.8155 15.1779 64.1456 15.833C64.4807 16.4881 64.6483 17.2879 64.6483 18.2324V25.682H61.8909V18.659C61.8909 17.8719 61.6878 17.26 61.2815 16.8232C60.8803 16.3814 60.3167 16.1605 59.5905 16.1605C59.103 16.1605 58.6663 16.2672 58.2803 16.4805C57.8995 16.6887 57.5999 16.9908 57.3815 17.3869C57.1682 17.783 57.0616 18.2629 57.0616 18.8266Z" fill="#007AFF"/>
<path d="M67.1519 25.682V10.082H73.0019C74.2004 10.082 75.2058 10.3055 76.0183 10.7523C76.8359 11.1992 77.4529 11.8137 77.8693 12.5957C78.2908 13.3727 78.5015 14.2562 78.5015 15.2465C78.5015 16.2469 78.2908 17.1355 77.8693 17.9125C77.4478 18.6895 76.8257 19.3014 76.0031 19.7482C75.1804 20.19 74.1673 20.4109 72.9638 20.4109H69.0867V18.0877H72.583C73.2838 18.0877 73.8576 17.9658 74.3045 17.7221C74.7513 17.4783 75.0814 17.1432 75.2947 16.7166C75.513 16.29 75.6222 15.8 75.6222 15.2465C75.6222 14.693 75.513 14.2055 75.2947 13.784C75.0814 13.3625 74.7488 13.035 74.2968 12.8014C73.85 12.5627 73.2736 12.4434 72.5677 12.4434H69.9779V25.682H67.1519Z" fill="#007AFF"/>
<path d="M80.5272 25.682V10.082H83.3531V16.6861H90.5818V10.082H93.4154V25.682H90.5818V19.0551H83.3531V25.682H80.5272Z" fill="#007AFF"/>
</svg>
