<svg width="116" height="44" viewBox="0 0 116 44" fill="none" xmlns="http://www.w3.org/2000/svg">
<path d="M1.88086 31.3889V12.3223H5.33483V20.3939H14.1699V12.3223H17.6332V31.3889H14.1699V23.2893H5.33483V31.3889H1.88086Z" fill="#007AFF"/>
<path d="M27.0472 31.6682C25.6135 31.6682 24.3752 31.3703 23.3325 30.7745C22.296 30.1724 21.4985 29.3221 20.9399 28.2236C20.3813 27.1188 20.102 25.8185 20.102 24.3227C20.102 22.8518 20.3813 21.5608 20.9399 20.4498C21.5047 19.3326 22.2929 18.4637 23.3046 17.843C24.3163 17.2162 25.5048 16.9027 26.8703 16.9027C27.7516 16.9027 28.5833 17.0455 29.3653 17.331C30.1536 17.6103 30.8487 18.0447 31.4508 18.6344C32.059 19.224 32.5369 19.975 32.8845 20.8874C33.232 21.7935 33.4058 22.8735 33.4058 24.1272V25.1606H21.6847V22.889H30.1753C30.1691 22.2435 30.0294 21.6694 29.7564 21.1667C29.4833 20.6577 29.1016 20.2574 28.6112 19.9657C28.1271 19.674 27.5623 19.5281 26.9168 19.5281C26.2279 19.5281 25.6228 19.6957 25.1014 20.0309C24.5801 20.3598 24.1735 20.7943 23.8818 21.3342C23.5963 21.868 23.4505 22.4545 23.4442 23.0938V25.0768C23.4442 25.9085 23.5963 26.6223 23.9004 27.2181C24.2046 27.8077 24.6297 28.2608 25.1759 28.5773C25.7221 28.8877 26.3613 29.0428 27.0937 29.0428C27.584 29.0428 28.0278 28.9746 28.425 28.838C28.8223 28.6953 29.1667 28.4873 29.4584 28.2143C29.7501 27.9412 29.9705 27.6029 30.1194 27.1995L33.2662 27.5533C33.0676 28.3849 32.689 29.1111 32.1304 29.7318C31.578 30.3462 30.8704 30.8241 30.0077 31.1655C29.145 31.5006 28.1582 31.6682 27.0472 31.6682Z" fill="#007AFF"/>
<path d="M39.8476 31.6775C38.9415 31.6775 38.1253 31.5162 37.3991 31.1934C36.6792 30.8645 36.1082 30.3804 35.6861 29.7411C35.2703 29.1018 35.0623 28.3136 35.0623 27.3764C35.0623 26.5695 35.2113 25.9023 35.5092 25.3747C35.8071 24.8472 36.2137 24.4251 36.7288 24.1086C37.244 23.7921 37.8243 23.5531 38.4698 23.3917C39.1215 23.2242 39.7949 23.1031 40.49 23.0286C41.3279 22.9418 42.0075 22.8642 42.5289 22.7959C43.0502 22.7214 43.4288 22.6097 43.6647 22.4607C43.9067 22.3056 44.0278 22.0666 44.0278 21.7439V21.688C44.0278 20.9867 43.8199 20.4436 43.404 20.0588C42.9882 19.674 42.3892 19.4816 41.6072 19.4816C40.7817 19.4816 40.1269 19.6616 39.6428 20.0215C39.1649 20.3815 38.8422 20.8067 38.6746 21.297L35.5278 20.8501C35.7761 19.9812 36.1857 19.255 36.7567 18.6716C37.3278 18.082 38.026 17.6413 38.8515 17.3496C39.6769 17.0517 40.5893 16.9027 41.5886 16.9027C42.2775 16.9027 42.9633 16.9834 43.6461 17.1448C44.3288 17.3062 44.9526 17.573 45.5174 17.9454C46.0822 18.3116 46.5352 18.8113 46.8766 19.4443C47.2242 20.0774 47.398 20.8687 47.398 21.8184V31.3889H44.1581V29.4245H44.0464C43.8416 29.8218 43.553 30.1942 43.1806 30.5417C42.8144 30.8831 42.352 31.1593 41.7934 31.3703C41.241 31.5751 40.5924 31.6775 39.8476 31.6775ZM40.7228 29.2011C41.3993 29.2011 41.9858 29.0677 42.4823 28.8008C42.9789 28.5277 43.3606 28.1677 43.6274 27.7208C43.9005 27.274 44.0371 26.7867 44.0371 26.2592V24.5741C43.9316 24.661 43.7516 24.7417 43.4971 24.8161C43.2488 24.8906 42.9695 24.9558 42.6592 25.0117C42.3489 25.0675 42.0417 25.1172 41.7375 25.1606C41.4334 25.2041 41.1696 25.2413 40.9462 25.2723C40.4435 25.3406 39.9935 25.4523 39.5963 25.6075C39.199 25.7626 38.8856 25.9799 38.656 26.2592C38.4263 26.5323 38.3115 26.886 38.3115 27.3205C38.3115 27.9412 38.538 28.4098 38.9911 28.7263C39.4442 29.0428 40.0214 29.2011 40.7228 29.2011Z" fill="#007AFF"/>
<path d="M53.6326 12.3223V31.3889H50.2624V12.3223H53.6326Z" fill="#007AFF"/>
<path d="M63.7146 17.0889V19.6957H55.4939V17.0889H63.7146ZM57.5235 13.6629H60.8937V27.0878C60.8937 27.5408 60.9619 27.8884 61.0985 28.1305C61.2412 28.3663 61.4274 28.5277 61.6571 28.6146C61.8867 28.7015 62.1412 28.7449 62.4205 28.7449C62.6315 28.7449 62.8239 28.7294 62.9977 28.6984C63.1777 28.6673 63.3142 28.6394 63.4073 28.6146L63.9752 31.2493C63.7952 31.3113 63.5377 31.3796 63.2025 31.4541C62.8736 31.5286 62.4701 31.572 61.9922 31.5844C61.1481 31.6093 60.3878 31.482 59.7113 31.2027C59.0348 30.9172 58.4979 30.4766 58.1007 29.8807C57.7097 29.2849 57.5173 28.5401 57.5235 27.6464V13.6629Z" fill="#007AFF"/>
<path d="M69.6862 23.01V31.3889H66.316V12.3223H69.6117V19.5188H69.7793C70.1145 18.712 70.6327 18.0758 71.3341 17.6103C72.0416 17.1386 72.9416 16.9027 74.0339 16.9027C75.027 16.9027 75.8928 17.1107 76.6314 17.5265C77.37 17.9423 77.941 18.5506 78.3444 19.3512C78.7541 20.1519 78.9589 21.1294 78.9589 22.2839V31.3889H75.5887V22.8052C75.5887 21.8432 75.3404 21.0953 74.8439 20.5615C74.3536 20.0215 73.6646 19.7516 72.7771 19.7516C72.1813 19.7516 71.6475 19.8819 71.1758 20.1426C70.7103 20.397 70.3441 20.7663 70.0772 21.2505C69.8166 21.7346 69.6862 22.3211 69.6862 23.01Z" fill="#007AFF"/>
<path d="M82.0188 31.3889V12.3223H89.1688C90.6336 12.3223 91.8625 12.5954 92.8556 13.1415C93.8548 13.6877 94.6089 14.4387 95.1179 15.3945C95.633 16.3441 95.8906 17.4241 95.8906 18.6344C95.8906 19.8571 95.633 20.9432 95.1179 21.8928C94.6027 22.8424 93.8424 23.5903 92.8369 24.1365C91.8315 24.6765 90.5932 24.9465 89.1223 24.9465H84.3836V22.107H88.6568C89.5133 22.107 90.2146 21.958 90.7608 21.6601C91.307 21.3622 91.7104 20.9525 91.9711 20.4312C92.238 19.9098 92.3714 19.3109 92.3714 18.6344C92.3714 17.9579 92.238 17.362 91.9711 16.8469C91.7104 16.3317 91.3039 15.9314 90.7515 15.6459C90.2053 15.3542 89.5009 15.2083 88.6382 15.2083H85.4728V31.3889H82.0188Z" fill="#007AFF"/>
<path d="M98.3664 31.3889V12.3223H101.82V20.3939H110.655V12.3223H114.119V31.3889H110.655V23.2893H101.82V31.3889H98.3664Z" fill="#007AFF"/>
</svg>
