<svg xmlns="http://www.w3.org/2000/svg" width="20" height="20" viewBox="0 0 20 20" fill="none">
  <path fill-rule="evenodd" clip-rule="evenodd" d="M6.01302 13.3357C5.87968 13.3357 5.74552 13.2932 5.63218 13.2065C5.35885 12.9957 5.30718 12.6032 5.51802 12.3299L8.01218 9.08821C8.11385 8.95571 8.26468 8.86988 8.42968 8.84904C8.59801 8.82738 8.76301 8.87404 8.89385 8.97821L11.2438 10.824L13.2997 8.17154C13.5113 7.89738 13.903 7.84654 14.1763 8.05988C14.4497 8.27154 14.4997 8.66404 14.288 8.93654L11.8463 12.0865C11.7447 12.2182 11.5947 12.304 11.4297 12.324C11.263 12.3465 11.098 12.2982 10.9663 12.1957L8.61802 10.3507L6.50885 13.0915C6.38552 13.2515 6.20052 13.3357 6.01302 13.3357Z" fill="color"/>
  <path fill-rule="evenodd" clip-rule="evenodd" d="M16.6388 2.91663C16.1005 2.91663 15.6622 3.35413 15.6622 3.89329C15.6622 4.43163 16.1005 4.87079 16.6388 4.87079C17.1772 4.87079 17.6155 4.43163 17.6155 3.89329C17.6155 3.35413 17.1772 2.91663 16.6388 2.91663ZM16.6388 6.12079C15.4113 6.12079 14.4122 5.12163 14.4122 3.89329C14.4122 2.66496 15.4113 1.66663 16.6388 1.66663C17.8672 1.66663 18.8655 2.66496 18.8655 3.89329C18.8655 5.12163 17.8672 6.12079 16.6388 6.12079Z" fill="color"/>
  <path fill-rule="evenodd" clip-rule="evenodd" d="M13.5268 18.9192H6.35685C3.55102 18.9192 1.66602 16.9484 1.66602 14.015V7.28004C1.66602 4.34254 3.55102 2.36838 6.35685 2.36838H12.4135C12.7585 2.36838 13.0385 2.64838 13.0385 2.99338C13.0385 3.33838 12.7585 3.61838 12.4135 3.61838H6.35685C4.26685 3.61838 2.91602 5.05504 2.91602 7.28004V14.015C2.91602 16.2692 4.23435 17.6692 6.35685 17.6692H13.5268C15.6168 17.6692 16.9677 16.235 16.9677 14.015V8.14921C16.9677 7.80421 17.2477 7.52421 17.5927 7.52421C17.9377 7.52421 18.2177 7.80421 18.2177 8.14921V14.015C18.2177 16.9484 16.3327 18.9192 13.5268 18.9192Z" fill="color"/>
</svg>