<svg xmlns="http://www.w3.org/2000/svg" width="20" height="20" viewBox="0 0 20 20" fill="none">
  <path fill-rule="evenodd" clip-rule="evenodd" d="M5.93392 14.6353C5.58892 14.6353 5.30892 14.3553 5.30892 14.0103V8.29367C5.30892 7.94867 5.58892 7.66867 5.93392 7.66867C6.27892 7.66867 6.55892 7.94867 6.55892 8.29367V14.0103C6.55892 14.3553 6.27892 14.6353 5.93392 14.6353Z" fill="color"/>
  <path fill-rule="evenodd" clip-rule="evenodd" d="M9.82309 14.6345C9.47809 14.6345 9.19809 14.3545 9.19809 14.0095V5.557C9.19809 5.212 9.47809 4.932 9.82309 4.932C10.1681 4.932 10.4481 5.212 10.4481 5.557V14.0095C10.4481 14.3545 10.1681 14.6345 9.82309 14.6345Z" fill="color"/>
  <path fill-rule="evenodd" clip-rule="evenodd" d="M13.6483 14.6345C13.3033 14.6345 13.0233 14.3545 13.0233 14.0095V11.3145C13.0233 10.9695 13.3033 10.6895 13.6483 10.6895C13.9933 10.6895 14.2733 10.9695 14.2733 11.3145V14.0095C14.2733 14.3545 13.9933 14.6345 13.6483 14.6345Z" fill="color"/>
  <path fill-rule="evenodd" clip-rule="evenodd" d="M5.88634 2.08325C3.57634 2.08325 2.08301 3.66409 2.08301 6.11242V13.4708C2.08301 15.9191 3.57634 17.4999 5.88634 17.4999H13.6963C16.0072 17.4999 17.4997 15.9191 17.4997 13.4708V6.11242C17.4997 3.66409 16.0072 2.08325 13.6963 2.08325H5.88634ZM13.6963 18.7499H5.88634C2.86384 18.7499 0.833008 16.6283 0.833008 13.4708V6.11242C0.833008 2.95492 2.86384 0.833252 5.88634 0.833252H13.6963C16.7188 0.833252 18.7497 2.95492 18.7497 6.11242V13.4708C18.7497 16.6283 16.7188 18.7499 13.6963 18.7499Z" fill="color"/>
</svg>