<svg xmlns="http://www.w3.org/2000/svg" width="16" height="16" viewBox="0 0 16 16" fill="none">
  <path d="M2.66602 7.81701C2.66602 7.56388 2.85412 7.35468 3.09817 7.32157L3.16602 7.31701H13.166C13.4422 7.31701 13.666 7.54087 13.666 7.81701C13.666 8.07014 13.4779 8.27934 13.2339 8.31244L13.166 8.31701H3.16602C2.88987 8.31701 2.66602 8.09315 2.66602 7.81701Z" fill="color"/>
  <path d="M8.78002 4.15509C8.58434 3.96025 8.58366 3.64367 8.7785 3.44799C8.95563 3.2701 9.23337 3.25336 9.42942 3.39818L9.4856 3.44647L13.5189 7.46247C13.6974 7.64012 13.7136 7.91887 13.5676 8.11492L13.519 8.17107L9.48563 12.1877C9.28997 12.3826 8.97339 12.3819 8.77853 12.1863C8.60138 12.0084 8.58582 11.7306 8.73146 11.5351L8.77999 11.4792L12.4573 7.81658L8.78002 4.15509Z" fill="color"/>
</svg>