<svg xmlns="http://www.w3.org/2000/svg" width="20" height="20" viewBox="0 0 20 20" fill="none">
  <path d="M9.7718 16.6667C9.45538 16.6667 9.19389 16.4315 9.1525 16.1265L9.1468 16.0417V3.54167C9.1468 3.19649 9.42662 2.91667 9.7718 2.91667C10.0882 2.91667 10.3497 3.1518 10.3911 3.45686L10.3968 3.54167V16.0417C10.3968 16.3868 10.117 16.6667 9.7718 16.6667Z" fill="color"/>
  <path d="M5.19436 9.02416C4.95081 9.26876 4.55508 9.26961 4.31048 9.02606C4.08811 8.80465 4.06719 8.45748 4.24821 8.21241L4.30857 8.14218L9.32857 3.10051C9.55064 2.87748 9.89907 2.8572 10.1441 3.03966L10.2143 3.10048L15.2352 8.14214C15.4787 8.38673 15.4779 8.78245 15.2333 9.02603C15.011 9.24745 14.6637 9.26691 14.4194 9.08486L14.3494 9.0242L9.77121 4.4275L5.19436 9.02416Z" fill="color"/>
</svg>