<svg xmlns="http://www.w3.org/2000/svg" width="16" height="16" viewBox="0 0 16 16" fill="none">
  <path d="M13.3341 8.1829C13.3341 8.43603 13.146 8.64523 12.902 8.67834L12.8341 8.6829H2.83412C2.55798 8.6829 2.33412 8.45905 2.33412 8.1829C2.33412 7.92977 2.52222 7.72058 2.76627 7.68747L2.83412 7.6829H12.8341C13.1103 7.6829 13.3341 7.90676 13.3341 8.1829Z" fill="color"/>
  <path d="M7.22011 11.8449C7.41579 12.0397 7.41647 12.3563 7.22163 12.552C7.0445 12.7299 6.76676 12.7466 6.57071 12.6018L6.51453 12.5535L2.48119 8.53748C2.30277 8.35983 2.28654 8.08109 2.43251 7.88504L2.48116 7.82889L6.5145 3.81222C6.71016 3.61736 7.02675 3.61802 7.2216 3.81368C7.39875 3.99156 7.41431 4.26937 7.26867 4.46481L7.22014 4.52079L3.54278 8.18337L7.22011 11.8449Z" fill="color"/>
</svg>