<svg xmlns="http://www.w3.org/2000/svg" width="24" height="24" viewBox="0 0 24 24" fill="none">
  <path d="M11.9998 4.99999C12.001 4.60002 11.9222 4.20385 11.768 3.83479C11.6139 3.46572 11.3874 3.13122 11.1021 2.85093C10.8168 2.57065 10.4783 2.35026 10.1065 2.20272C9.73472 2.05518 9.33721 1.98347 8.93733 1.9918C8.53744 2.00014 8.14326 2.08835 7.77797 2.25126C7.41268 2.41416 7.08365 2.64847 6.81023 2.94039C6.53682 3.23232 6.32454 3.57597 6.18588 3.95114C6.04722 4.32631 5.98499 4.72542 6.00283 5.12499M11.9998 4.99999V18M11.9998 4.99999C11.9987 4.60002 12.0775 4.20385 12.2316 3.83479C12.3858 3.46572 12.6122 3.13122 12.8976 2.85093C13.1829 2.57065 13.5214 2.35026 13.8932 2.20272C14.2649 2.05518 14.6625 1.98347 15.0623 1.9918C15.4622 2.00014 15.8564 2.08835 16.2217 2.25126C16.587 2.41416 16.916 2.64847 17.1894 2.94039C17.4628 3.23232 17.6751 3.57597 17.8138 3.95114C17.9524 4.32631 18.0147 4.72542 17.9968 5.12499M6.00283 5.12499C5.41503 5.27613 4.86933 5.55904 4.40706 5.9523C3.94479 6.34556 3.57807 6.83886 3.33467 7.39484C3.09128 7.95081 2.97759 8.55488 3.00222 9.1613C3.02685 9.76772 3.18915 10.3606 3.47683 10.895M6.00283 5.12499C6.02261 5.60872 6.15916 6.08048 6.40083 6.49999M3.47683 10.895C2.97101 11.3059 2.57326 11.8342 2.31817 12.4339C2.06308 13.0336 1.95839 13.6866 2.01319 14.336C2.068 14.9854 2.28065 15.6115 2.63264 16.16C2.98462 16.7085 3.46529 17.1626 4.03283 17.483M3.47683 10.895C3.65977 10.746 3.85553 10.6145 4.06183 10.5M4.03283 17.483C3.96275 18.0252 4.00457 18.5761 4.15572 19.1015C4.30686 19.627 4.56413 20.1158 4.91161 20.5379C5.2591 20.9601 5.68944 21.3065 6.17605 21.5557C6.66266 21.805 7.19521 21.9519 7.74081 21.9873C8.28641 22.0227 8.83347 21.9459 9.34822 21.7616C9.86296 21.5773 10.3345 21.2894 10.7336 20.9157C11.1327 20.5421 11.451 20.0906 11.6688 19.5891C11.8866 19.0876 11.9992 18.5467 11.9998 18M4.03283 17.483C4.6331 17.8216 5.31066 18.0003 5.99983 18M11.9998 18C12.0004 18.5467 12.1131 19.0876 12.3309 19.5891C12.5487 20.0906 12.8669 20.5421 13.2661 20.9157C13.6652 21.2894 14.1367 21.5773 14.6514 21.7616C15.1662 21.9459 15.7133 22.0227 16.2589 21.9873C16.8045 21.9519 17.337 21.805 17.8236 21.5557C18.3102 21.3065 18.7406 20.9601 19.088 20.5379C19.4355 20.1158 19.6928 19.627 19.8439 19.1015C19.9951 18.5761 20.0369 18.0252 19.9668 17.483M17.9968 5.12499C18.5846 5.27613 19.1303 5.55904 19.5926 5.9523C20.0549 6.34556 20.4216 6.83886 20.665 7.39484C20.9084 7.95081 21.0221 8.55488 20.9974 9.1613C20.9728 9.76772 20.8105 10.3606 20.5228 10.895M17.9968 5.12499C17.9767 5.60881 17.8409 6.08057 17.5988 6.49999M20.5228 10.895C21.0287 11.3059 21.4264 11.8342 21.6815 12.4339C21.9366 13.0336 22.0413 13.6866 21.9865 14.336C21.9317 14.9854 21.719 15.6115 21.367 16.16C21.015 16.7085 20.5344 17.1626 19.9668 17.483M20.5228 10.895C20.3399 10.746 20.1441 10.6145 19.9378 10.5M19.9668 17.483C19.3666 17.8216 18.689 18.0003 17.9998 18M14.9998 13C14.1603 12.7046 13.4271 12.167 12.8932 11.455C12.3592 10.743 12.0483 9.88866 11.9998 8.99999C11.9514 9.88866 11.6405 10.743 11.1065 11.455C10.5725 12.167 9.83938 12.7046 8.99983 13" stroke="color" stroke-width="2" stroke-linecap="round" stroke-linejoin="round"/>
</svg>