<svg xmlns="http://www.w3.org/2000/svg" width="16" height="16" viewBox="0 0 16 16" fill="none">
  <path fill-rule="evenodd" clip-rule="evenodd" d="M8.00065 2.3335C4.87598 2.3335 2.33398 4.8755 2.33398 8.00016C2.33398 11.1248 4.87598 13.6668 8.00065 13.6668C11.1253 13.6668 13.6673 11.1248 13.6673 8.00016C13.6673 4.8755 11.1253 2.3335 8.00065 2.3335ZM8.00065 14.6668C4.32465 14.6668 1.33398 11.6762 1.33398 8.00016C1.33398 4.32416 4.32465 1.3335 8.00065 1.3335C11.6767 1.3335 14.6673 4.32416 14.6673 8.00016C14.6673 11.6762 11.6767 14.6668 8.00065 14.6668Z" fill="color"/>
  <path fill-rule="evenodd" clip-rule="evenodd" d="M7.41648 10.164C7.28915 10.164 7.16048 10.1153 7.06315 10.0173L5.48048 8.43533C5.28515 8.24 5.28515 7.924 5.48048 7.72866C5.67582 7.53333 5.99182 7.53333 6.18715 7.72866L7.41648 8.95666L10.2272 6.14666C10.4225 5.95133 10.7385 5.95133 10.9338 6.14666C11.1292 6.342 11.1292 6.658 10.9338 6.85333L7.76982 10.0173C7.67248 10.1153 7.54448 10.164 7.41648 10.164Z" fill="color"/>
</svg>