<svg xmlns="http://www.w3.org/2000/svg" width="20" height="20" viewBox="0 0 20 20" fill="none">
  <path d="M9.99935 6.87435C9.17055 6.87435 8.37569 7.20359 7.78964 7.78964C7.20359 8.37569 6.87435 9.17055 6.87435 9.99935C6.87435 10.8282 7.20359 11.623 7.78964 12.2091C8.37569 12.7951 9.17055 13.1243 9.99935 13.1243C10.8282 13.1243 11.623 12.7951 12.2091 12.2091C12.7951 11.623 13.1243 10.8282 13.1243 9.99935C13.1243 9.17055 12.7951 8.37569 12.2091 7.78964C11.623 7.20359 10.8282 6.87435 9.99935 6.87435Z" fill="color"/>
  <path fill-rule="evenodd" clip-rule="evenodd" d="M9.99935 1.04102C10.1651 1.04102 10.3241 1.10686 10.4413 1.22407C10.5585 1.34128 10.6243 1.50026 10.6243 1.66602V2.73435C12.3359 2.88189 13.9404 3.62884 15.1551 4.84357C16.3699 6.05829 17.1168 7.66282 17.2644 9.37435H18.3327C18.4984 9.37435 18.6574 9.4402 18.7746 9.55741C18.8918 9.67462 18.9577 9.83359 18.9577 9.99935C18.9577 10.1651 18.8918 10.3241 18.7746 10.4413C18.6574 10.5585 18.4984 10.6243 18.3327 10.6243H17.2644C17.1168 12.3359 16.3699 13.9404 15.1551 15.1551C13.9404 16.3699 12.3359 17.1168 10.6243 17.2644V18.3327C10.6243 18.4984 10.5585 18.6574 10.4413 18.7746C10.3241 18.8918 10.1651 18.9577 9.99935 18.9577C9.83359 18.9577 9.67462 18.8918 9.55741 18.7746C9.4402 18.6574 9.37435 18.4984 9.37435 18.3327V17.2644C7.66282 17.1168 6.05829 16.3699 4.84357 15.1551C3.62884 13.9404 2.88189 12.3359 2.73435 10.6243H1.66602C1.50026 10.6243 1.34128 10.5585 1.22407 10.4413C1.10686 10.3241 1.04102 10.1651 1.04102 9.99935C1.04102 9.83359 1.10686 9.67462 1.22407 9.55741C1.34128 9.4402 1.50026 9.37435 1.66602 9.37435H2.73435C2.88189 7.66282 3.62884 6.05829 4.84357 4.84357C6.05829 3.62884 7.66282 2.88189 9.37435 2.73435V1.66602C9.37435 1.50026 9.4402 1.34128 9.55741 1.22407C9.67462 1.10686 9.83359 1.04102 9.99935 1.04102ZM3.95768 9.99935C3.95768 10.7928 4.11395 11.5784 4.41758 12.3114C4.7212 13.0444 5.16622 13.7104 5.72725 14.2715C6.28827 14.8325 6.95429 15.2775 7.6873 15.5811C8.42031 15.8847 9.20595 16.041 9.99935 16.041C10.7928 16.041 11.5784 15.8847 12.3114 15.5811C13.0444 15.2775 13.7104 14.8325 14.2715 14.2715C14.8325 13.7104 15.2775 13.0444 15.5811 12.3114C15.8847 11.5784 16.041 10.7928 16.041 9.99935C16.041 8.397 15.4045 6.86028 14.2715 5.72725C13.1384 4.59421 11.6017 3.95768 9.99935 3.95768C8.397 3.95768 6.86028 4.59421 5.72725 5.72725C4.59421 6.86028 3.95768 8.397 3.95768 9.99935Z" fill="color"/>
</svg>