<svg xmlns="http://www.w3.org/2000/svg" width="24" height="24" viewBox="0 0 24 24" fill="none">
  <path fill-rule="evenodd" clip-rule="evenodd" d="M15.7159 16.9737H8.49591C8.08191 16.9737 7.74591 16.6377 7.74591 16.2237C7.74591 15.8097 8.08191 15.4737 8.49591 15.4737H15.7159C16.1299 15.4737 16.4659 15.8097 16.4659 16.2237C16.4659 16.6377 16.1299 16.9737 15.7159 16.9737Z" fill="color"/>
  <path fill-rule="evenodd" clip-rule="evenodd" d="M15.7159 12.7872H8.49591C8.08191 12.7872 7.74591 12.4512 7.74591 12.0372C7.74591 11.6232 8.08191 11.2872 8.49591 11.2872H15.7159C16.1299 11.2872 16.4659 11.6232 16.4659 12.0372C16.4659 12.4512 16.1299 12.7872 15.7159 12.7872Z" fill="color"/>
  <path fill-rule="evenodd" clip-rule="evenodd" d="M11.2506 8.6104H8.49561C8.08161 8.6104 7.74561 8.2744 7.74561 7.8604C7.74561 7.4464 8.08161 7.1104 8.49561 7.1104H11.2506C11.6646 7.1104 12.0006 7.4464 12.0006 7.8604C12.0006 8.2744 11.6646 8.6104 11.2506 8.6104Z" fill="color"/>
  <path fill-rule="evenodd" clip-rule="evenodd" d="M15.909 3.5L8.22 3.504C5.892 3.518 4.5 4.958 4.5 7.357V16.553C4.5 18.968 5.905 20.41 8.256 20.41L15.945 20.407C18.273 20.393 19.665 18.951 19.665 16.553V7.357C19.665 4.942 18.261 3.5 15.909 3.5ZM8.257 21.91C5.113 21.91 3 19.757 3 16.553V7.357C3 4.124 5.047 2.023 8.215 2.004L15.909 2C19.053 2 21.165 4.153 21.165 7.357V16.553C21.165 19.785 19.118 21.887 15.95 21.907L8.257 21.91Z" fill="color"/>
</svg>