<svg xmlns="http://www.w3.org/2000/svg" width="20" height="20" viewBox="0 0 20 20" fill="none">
  <path fill-rule="evenodd" clip-rule="evenodd" d="M10.0008 13.7842C9.6558 13.7842 9.3758 13.5042 9.3758 13.1592V3.125C9.3758 2.78 9.6558 2.5 10.0008 2.5C10.3458 2.5 10.6258 2.78 10.6258 3.125V13.1592C10.6258 13.5042 10.3458 13.7842 10.0008 13.7842Z" fill="color"/>
  <path fill-rule="evenodd" clip-rule="evenodd" d="M10.0008 13.7842C9.83497 13.7842 9.67525 13.7184 9.55859 13.6L7.12859 11.1609C6.88525 10.9159 6.88609 10.52 7.13025 10.2767C7.37525 10.0334 7.77025 10.0334 8.01359 10.2784L10.0011 12.2742L11.9886 10.2784C12.2319 10.0334 12.6269 10.0334 12.8719 10.2767C13.1161 10.52 13.1169 10.9159 12.8736 11.1609L10.4436 13.6C10.3269 13.7184 10.1666 13.7842 10.0008 13.7842Z" fill="color"/>
  <path fill-rule="evenodd" clip-rule="evenodd" d="M14.6458 17.8972H5.36249C3.32499 17.8972 1.66666 16.2397 1.66666 14.2014V10.1306C1.66666 8.09722 3.32082 6.44389 5.35499 6.44389H6.13916C6.48416 6.44389 6.76416 6.72389 6.76416 7.06889C6.76416 7.41389 6.48416 7.69389 6.13916 7.69389H5.35499C4.00999 7.69389 2.91666 8.78639 2.91666 10.1306V14.2014C2.91666 15.5506 4.01332 16.6472 5.36249 16.6472H14.6458C15.9892 16.6472 17.0833 15.5531 17.0833 14.2097V10.1397C17.0833 8.79055 15.9858 7.69389 14.6383 7.69389H13.8617C13.5167 7.69389 13.2367 7.41389 13.2367 7.06889C13.2367 6.72389 13.5167 6.44389 13.8617 6.44389H14.6383C16.6758 6.44389 18.3333 8.10222 18.3333 10.1397V14.2097C18.3333 16.2431 16.6783 17.8972 14.6458 17.8972Z" fill="color"/>
</svg>