<svg xmlns="http://www.w3.org/2000/svg" width="16" height="16" viewBox="0 0 16 16" fill="none">
  <path fill-rule="evenodd" clip-rule="evenodd" d="M8.00737 3C7.69004 3 7.40737 3.164 7.24871 3.43933L2.45004 11.816C2.29404 12.0893 2.29537 12.4153 2.45337 12.688C2.61137 12.9607 2.89404 13.124 3.20937 13.124H12.798C13.1127 13.124 13.3954 12.9607 13.5534 12.688C13.712 12.4153 13.7134 12.0893 13.556 11.816L8.76604 3.43933C8.60804 3.164 8.32537 3 8.00737 3ZM12.798 14.124H3.20937C2.53337 14.124 1.92737 13.7747 1.58804 13.1893C1.24871 12.6047 1.24671 11.9053 1.58204 11.3193L6.38204 2.942C6.71937 2.352 7.32671 2 8.00737 2H8.00804C8.68804 2 9.29671 2.35267 9.63404 2.94333L14.4247 11.3193C14.76 11.9053 14.758 12.6047 14.4187 13.1893C14.0794 13.7747 13.4734 14.124 12.798 14.124Z" fill="color"/>
  <path fill-rule="evenodd" clip-rule="evenodd" d="M8.00151 9.44267C7.72551 9.44267 7.50151 9.21867 7.50151 8.94267V6.876C7.50151 6.6 7.72551 6.376 8.00151 6.376C8.27751 6.376 8.50151 6.6 8.50151 6.876V8.94267C8.50151 9.21867 8.27751 9.44267 8.00151 9.44267Z" fill="color"/>
  <path fill-rule="evenodd" clip-rule="evenodd" d="M8.00284 11.666C7.63417 11.666 7.33284 11.368 7.33284 10.9993C7.33284 10.6307 7.62817 10.3327 7.99617 10.3327H8.00284C8.37151 10.3327 8.66951 10.6307 8.66951 10.9993C8.66951 11.368 8.37151 11.666 8.00284 11.666Z" fill="color"/>
</svg>