<svg xmlns="http://www.w3.org/2000/svg" width="20" height="20" viewBox="0 0 20 20" fill="none">
  <path fill-rule="evenodd" clip-rule="evenodd" d="M9.99935 2.91663C6.09352 2.91663 2.91602 6.09413 2.91602 9.99996C2.91602 13.9058 6.09352 17.0833 9.99935 17.0833C13.9052 17.0833 17.0827 13.9058 17.0827 9.99996C17.0827 6.09413 13.9052 2.91663 9.99935 2.91663ZM9.99935 18.3333C5.40435 18.3333 1.66602 14.595 1.66602 9.99996C1.66602 5.40496 5.40435 1.66663 9.99935 1.66663C14.5943 1.66663 18.3327 5.40496 18.3327 9.99996C18.3327 14.595 14.5943 18.3333 9.99935 18.3333Z" fill="color"/>
  <path d="M9.1944 11.7482V11.6726C9.19981 11.1794 9.24982 10.7869 9.34444 10.4952C9.44177 10.2035 9.57964 9.96747 9.75807 9.78715C9.93649 9.60683 10.1514 9.44242 10.4028 9.29391C10.565 9.19315 10.711 9.08044 10.8408 8.95581C10.9706 8.83117 11.0733 8.68797 11.149 8.52621C11.2247 8.36445 11.2625 8.18545 11.2625 7.98922C11.2625 7.75321 11.2058 7.54902 11.0922 7.37665C10.9787 7.20428 10.8273 7.07169 10.638 6.97888C10.4515 6.88341 10.2433 6.83568 10.0135 6.83568C9.80538 6.83568 9.60668 6.87811 9.41744 6.96297C9.2282 7.04782 9.0714 7.18042 8.94704 7.36074C8.82268 7.53841 8.75104 7.76779 8.73211 8.04889H7.49935C7.51827 7.57156 7.64128 7.16848 7.86837 6.83966C8.09546 6.50818 8.39554 6.25758 8.76861 6.08787C9.14439 5.91815 9.55937 5.83329 10.0135 5.83329C10.511 5.83329 10.9462 5.92478 11.3193 6.10776C11.6924 6.28808 11.9816 6.54133 12.1871 6.8675C12.3953 7.19102 12.4993 7.56891 12.4993 8.00115C12.4993 8.29816 12.452 8.56599 12.3574 8.80465C12.2628 9.04067 12.1276 9.25148 11.9519 9.43711C11.7789 9.62274 11.5707 9.78715 11.3274 9.93035C11.0976 10.0709 10.9111 10.2167 10.7678 10.3679C10.6272 10.5191 10.5245 10.6981 10.4596 10.9049C10.3947 11.1117 10.3596 11.3676 10.3542 11.6726V11.7482H9.1944ZM9.80673 14.1666C9.58505 14.1666 9.39446 14.0897 9.23495 13.9359C9.07545 13.7795 8.9957 13.5912 8.9957 13.3711C8.9957 13.1536 9.07545 12.968 9.23495 12.8142C9.39446 12.6577 9.58505 12.5795 9.80673 12.5795C10.0257 12.5795 10.2149 12.6577 10.3745 12.8142C10.5367 12.968 10.6178 13.1536 10.6178 13.3711C10.6178 13.5169 10.5799 13.6508 10.5042 13.7728C10.4312 13.8922 10.3339 13.9876 10.2122 14.0592C10.0906 14.1308 9.95542 14.1666 9.80673 14.1666Z" fill="color"/>
</svg>