<svg xmlns="http://www.w3.org/2000/svg" width="20" height="20" viewBox="0 0 20 20" fill="none">
  <path fill-rule="evenodd" clip-rule="evenodd" d="M11.4302 12.7428C12.4335 12.7428 13.2502 13.5536 13.2502 14.5503V17.1136C13.2502 17.3277 13.4219 17.4994 13.6418 17.5044H15.2302C16.4818 17.5044 17.4993 16.4994 17.4993 15.2644V7.99442C17.4935 7.56942 17.291 7.16942 16.9435 6.90358L11.4493 2.52192C10.7118 1.93775 9.68018 1.93775 8.94018 2.52358L3.48352 6.90192C3.12268 7.17608 2.92018 7.57608 2.91602 8.00858V15.2644C2.91602 16.4994 3.93352 17.5044 5.18518 17.5044H6.78852C7.01435 17.5044 7.19768 17.3252 7.19768 17.1052C7.19768 17.0569 7.20352 17.0086 7.21352 16.9627V14.5503C7.21352 13.5594 8.02518 12.7494 9.02102 12.7428H11.4302ZM15.2302 18.7544H13.6268C12.7085 18.7327 12.0002 18.0119 12.0002 17.1136V14.5503C12.0002 14.2428 11.7443 13.9928 11.4302 13.9928H9.02518C8.71768 13.9944 8.46352 14.2453 8.46352 14.5503V17.1053C8.46352 17.1678 8.45518 17.2278 8.43768 17.2844C8.34768 18.1094 7.64268 18.7544 6.78852 18.7544H5.18518C3.24435 18.7544 1.66602 17.1886 1.66602 15.2644V8.00275C1.67435 7.17442 2.05602 6.41608 2.71518 5.91692L8.16102 1.54608C9.36018 0.596083 11.031 0.596082 12.2277 1.54442L17.7127 5.91942C18.3568 6.41025 18.7385 7.16692 18.7493 7.98525V15.2644C18.7493 17.1886 17.171 18.7544 15.2302 18.7544Z" fill="color"/>
</svg>