<svg xmlns="http://www.w3.org/2000/svg" width="16" height="16" viewBox="0 0 16 16" fill="none">
  <path fill-rule="evenodd" clip-rule="evenodd" d="M8.00065 2.3335C4.87598 2.3335 2.33398 4.8755 2.33398 8.00016C2.33398 11.1248 4.87598 13.6668 8.00065 13.6668C11.1253 13.6668 13.6673 11.1248 13.6673 8.00016C13.6673 4.8755 11.1253 2.3335 8.00065 2.3335ZM8.00065 14.6668C4.32465 14.6668 1.33398 11.6762 1.33398 8.00016C1.33398 4.32416 4.32465 1.3335 8.00065 1.3335C11.6767 1.3335 14.6673 4.32416 14.6673 8.00016C14.6673 11.6762 11.6767 14.6668 8.00065 14.6668Z" fill="color"/>
  <path fill-rule="evenodd" clip-rule="evenodd" d="M8.00065 11.0308C7.72465 11.0308 7.50065 10.8068 7.50065 10.5308V7.8641C7.50065 7.5881 7.72465 7.3641 8.00065 7.3641C8.27665 7.3641 8.50065 7.5881 8.50065 7.8641V10.5308C8.50065 10.8068 8.27665 11.0308 8.00065 11.0308Z" fill="color"/>
  <path fill-rule="evenodd" clip-rule="evenodd" d="M8.00398 6.00016C7.63532 6.00016 7.33398 5.70216 7.33398 5.3335C7.33398 4.96483 7.62932 4.66683 7.99732 4.66683H8.00398C8.37265 4.66683 8.67065 4.96483 8.67065 5.3335C8.67065 5.70216 8.37265 6.00016 8.00398 6.00016Z" fill="color"/>
</svg>