<svg xmlns="http://www.w3.org/2000/svg" width="20" height="20" viewBox="0 0 20 20" fill="none">
  <path fill-rule="evenodd" clip-rule="evenodd" d="M9.43185 18.3333H5.36018C3.32352 18.3333 1.66602 16.6758 1.66602 14.6375V5.36329C1.66602 3.32496 3.32352 1.66663 5.36018 1.66663H9.42268C11.461 1.66663 13.1193 3.32496 13.1193 5.36329V6.13996C13.1193 6.48496 12.8393 6.76496 12.4943 6.76496C12.1493 6.76496 11.8693 6.48496 11.8693 6.13996V5.36329C11.8693 4.01329 10.7718 2.91663 9.42268 2.91663H5.36018C4.01268 2.91663 2.91602 4.01329 2.91602 5.36329V14.6375C2.91602 15.9866 4.01268 17.0833 5.36018 17.0833H9.43185C10.7752 17.0833 11.8693 15.99 11.8693 14.6466V13.8608C11.8693 13.5158 12.1493 13.2358 12.4943 13.2358C12.8393 13.2358 13.1193 13.5158 13.1193 13.8608V14.6466C13.1193 16.68 11.4643 18.3333 9.43185 18.3333Z" fill="color"/>
  <path fill-rule="evenodd" clip-rule="evenodd" d="M18.155 10.625H8.12085C7.77585 10.625 7.49585 10.345 7.49585 9.99996C7.49585 9.65496 7.77585 9.37496 8.12085 9.37496H18.155C18.5 9.37496 18.78 9.65496 18.78 9.99996C18.78 10.345 18.5 10.625 18.155 10.625Z" fill="color"/>
  <path fill-rule="evenodd" clip-rule="evenodd" d="M15.7153 13.055C15.5553 13.055 15.3944 12.9941 15.2728 12.8708C15.0294 12.6258 15.0303 12.2308 15.2744 11.9875L17.2694 9.99996L15.2744 8.01329C15.0303 7.76996 15.0286 7.37496 15.2728 7.12996C15.5161 6.88496 15.9111 6.88496 16.1561 7.12829L18.5961 9.55746C18.7144 9.67413 18.78 9.83413 18.78 9.99996C18.78 10.1658 18.7144 10.3258 18.5961 10.4425L16.1561 12.8725C16.0344 12.9941 15.8744 13.055 15.7153 13.055Z" fill="color"/>
</svg>