<svg xmlns="http://www.w3.org/2000/svg" width="16" height="16" viewBox="0 0 16 16" fill="none">
  <path fill-rule="evenodd" clip-rule="evenodd" d="M7.85068 8.97621C7.40468 8.97621 6.96001 8.82887 6.58802 8.53421L3.59802 6.12354C3.38268 5.95021 3.34935 5.63487 3.52202 5.42021C3.69602 5.20621 4.01068 5.17221 4.22535 5.34487L7.21268 7.75287C7.58802 8.05021 8.11668 8.05021 8.49468 7.75021L11.452 5.34621C11.6667 5.17087 11.9813 5.20421 12.156 5.41887C12.33 5.63287 12.2973 5.94754 12.0833 6.12221L9.12068 8.53021C8.74602 8.82754 8.29801 8.97621 7.85068 8.97621Z" fill="color"/>
  <path fill-rule="evenodd" clip-rule="evenodd" d="M11.1053 13.333C11.1067 13.3317 11.112 13.333 11.116 13.333C11.8767 13.333 12.5513 13.061 13.0687 12.5443C13.6693 11.9463 13.9993 11.087 13.9993 10.125V5.54634C13.9993 3.68434 12.782 2.33301 11.1053 2.33301H4.56002C2.88335 2.33301 1.66602 3.68434 1.66602 5.54634V10.125C1.66602 11.087 1.99668 11.9463 2.59668 12.5443C3.11402 13.061 3.78935 13.333 4.54935 13.333H11.1053ZM4.54735 14.333C3.51868 14.333 2.60002 13.9597 1.89068 13.253C1.10068 12.465 0.666016 11.3543 0.666016 10.125V5.54634C0.666016 3.14434 2.34002 1.33301 4.56002 1.33301H11.1053C13.3253 1.33301 14.9993 3.14434 14.9993 5.54634V10.125C14.9993 11.3543 14.5647 12.465 13.7747 13.253C13.066 13.959 12.1467 14.333 11.116 14.333H4.54735Z" fill="color"/>
</svg>