<svg xmlns="http://www.w3.org/2000/svg" width="20" height="20" viewBox="0 0 20 20" fill="none">
  <path d="M14.9994 10.8327H10.8327C11.666 10.8327 10.4577 10.8327 9.99935 10.8327C9.54102 10.8327 9.99935 10.8327 9.16602 10.8327C8.33268 10.8327 4.99935 10.8327 4.99935 10.8327C4.54102 10.8327 4.16602 10.4577 4.16602 9.99935C4.16602 9.54102 4.54102 9.16602 4.99935 9.16602H9.16602C8.74935 9.16602 9.58268 9.16602 9.99935 9.16602C10.4577 9.16602 11.2493 9.16602 10.8327 9.16602L14.9994 9.16602C15.4577 9.16602 15.8327 9.54102 15.8327 9.99935C15.8327 10.4577 15.4577 10.8327 14.9994 10.8327Z" fill="color"/>
</svg>