<svg xmlns="http://www.w3.org/2000/svg" width="24" height="24" viewBox="0 0 24 24" fill="none">
  <path fill-rule="evenodd" clip-rule="evenodd" d="M7.47851 3.51164C5.83551 3.51164 4.49951 4.84864 4.49951 6.49064V17.3396C4.50451 18.1506 4.82651 18.9146 5.40551 19.4876C5.98351 20.0586 6.78051 20.3866 7.56651 20.3666C7.57351 20.3666 7.68351 20.3656 7.68951 20.3656H15.5725C17.2145 20.3476 18.5545 18.9906 18.5515 17.3406V8.34164L13.9165 3.51164H7.47851ZM7.54251 21.8666C6.34251 21.8666 5.20751 21.4016 4.35051 20.5536C3.48651 19.6996 3.00651 18.5596 2.99951 17.3436V6.49064C2.99951 4.02164 5.00851 2.01164 7.47851 2.01164H14.2365C14.4405 2.01164 14.6355 2.09464 14.7775 2.24164L19.8425 7.52064C19.9765 7.65964 20.0515 7.84664 20.0515 8.03964V17.3396C20.0565 19.8086 18.0505 21.8396 15.5805 21.8656L7.54251 21.8666Z" fill="color"/>
  <path fill-rule="evenodd" clip-rule="evenodd" d="M19.2969 8.98437H16.5409C14.7109 8.97937 13.2239 7.48737 13.2239 5.65937V2.75037C13.2239 2.33637 13.5599 2.00037 13.9739 2.00037C14.3879 2.00037 14.7239 2.33637 14.7239 2.75037V5.65937C14.7239 6.66337 15.5399 7.48137 16.5429 7.48437H19.2969C19.7109 7.48437 20.0469 7.82037 20.0469 8.23437C20.0469 8.64837 19.7109 8.98437 19.2969 8.98437Z" fill="color"/>
  <path fill-rule="evenodd" clip-rule="evenodd" d="M13.0752 15.3985C12.8832 15.3985 12.6912 15.3255 12.5452 15.1785L9.07922 11.7125C8.78622 11.4195 8.78622 10.9455 9.07922 10.6525C9.37222 10.3595 9.84622 10.3595 10.1392 10.6525L13.6052 14.1185C13.8982 14.4115 13.8982 14.8855 13.6052 15.1785C13.4592 15.3255 13.2672 15.3985 13.0752 15.3985Z" fill="color"/>
  <path fill-rule="evenodd" clip-rule="evenodd" d="M9.61042 15.3985C9.41842 15.3985 9.22642 15.3255 9.08042 15.1785C8.78742 14.8855 8.78742 14.4115 9.08042 14.1185L12.5464 10.6525C12.8394 10.3595 13.3134 10.3595 13.6064 10.6525C13.8994 10.9455 13.8994 11.4195 13.6064 11.7125L10.1404 15.1785C9.99442 15.3255 9.80242 15.3985 9.61042 15.3985Z" fill="color"/>
</svg>