<svg xmlns="http://www.w3.org/2000/svg" width="20" height="20" viewBox="0 0 20 20" fill="none">
  <path d="M13.126 2.5C13.3722 2.5 13.6161 2.5485 13.8435 2.64273C14.071 2.73695 14.2777 2.87506 14.4518 3.04917C14.626 3.22328 14.7641 3.42998 14.8583 3.65747C14.9525 3.88495 15.001 4.12877 15.001 4.375V5.0025H15.626C16.3443 5.00294 17.0331 5.28837 17.5412 5.79614C18.0493 6.30391 18.3351 6.99252 18.336 7.71083L18.3385 12.7083C18.3386 12.9545 18.2903 13.1982 18.1962 13.4256C18.1021 13.653 17.9641 13.8597 17.7902 14.0338C17.6162 14.2079 17.4097 14.3461 17.1823 14.4404C16.955 14.5346 16.7113 14.5832 16.4652 14.5833H14.9993V15.625C14.9993 16.1223 14.8018 16.5992 14.4502 16.9508C14.0985 17.3025 13.6216 17.5 13.1243 17.5H6.87435C6.37707 17.5 5.90015 17.3025 5.54852 16.9508C5.19689 16.5992 4.99935 16.1223 4.99935 15.625V14.5833H3.54102C3.04373 14.5833 2.56682 14.3858 2.21519 14.0342C1.86356 13.6825 1.66602 13.2056 1.66602 12.7083V7.71167C1.66602 6.99337 1.95136 6.3045 2.45927 5.79659C2.96718 5.28867 3.65605 5.00333 4.37435 5.00333L4.99852 5.0025L4.99935 4.375C4.99935 3.87772 5.19689 3.40081 5.54852 3.04917C5.90015 2.69754 6.37707 2.5 6.87435 2.5H13.126ZM13.1243 11.25H6.87435C6.70859 11.25 6.54962 11.3158 6.43241 11.4331C6.3152 11.5503 6.24935 11.7092 6.24935 11.875V15.625C6.24935 15.97 6.52935 16.25 6.87435 16.25H13.1243C13.2901 16.25 13.4491 16.1842 13.5663 16.0669C13.6835 15.9497 13.7493 15.7908 13.7493 15.625V11.875C13.7493 11.7092 13.6835 11.5503 13.5663 11.4331C13.4491 11.3158 13.2901 11.25 13.1243 11.25ZM15.626 6.25333H4.37435C3.98758 6.25333 3.61664 6.40698 3.34315 6.68047C3.06966 6.95396 2.91602 7.32489 2.91602 7.71167V12.7083C2.91602 13.0533 3.19602 13.3333 3.54102 13.3333H4.99935V11.875C4.99935 11.3777 5.19689 10.9008 5.54852 10.5492C5.90015 10.1975 6.37707 10 6.87435 10H13.1243C13.6216 10 14.0985 10.1975 14.4502 10.5492C14.8018 10.9008 14.9993 11.3777 14.9993 11.875V13.3333H16.4852C16.6471 13.3279 16.8005 13.2598 16.9131 13.1433C17.0257 13.0268 17.0886 12.8712 17.0885 12.7092L17.086 7.71167C17.0851 7.32487 16.931 6.9542 16.6573 6.68085C16.3837 6.40751 16.0128 6.25377 15.626 6.25333ZM13.126 3.75H6.87435C6.70859 3.75 6.54962 3.81585 6.43241 3.93306C6.3152 4.05027 6.24935 4.20924 6.24935 4.375L6.24852 5.0025H13.751V4.375C13.751 4.20924 13.6852 4.05027 13.568 3.93306C13.4507 3.81585 13.2918 3.75 13.126 3.75Z" fill="color"/>
</svg>