<svg xmlns="http://www.w3.org/2000/svg" width="24" height="24" viewBox="0 0 24 24" fill="none">
  <g clip-path="url(#clip0_2843_10861)">
    <path d="M9.95093 1.70251C11.4736 1.39953 13.0446 1.43801 14.5507 1.81517C16.0567 2.19233 17.4604 2.89878 18.6606 3.88365C19.8608 4.86852 20.8277 6.10729 21.4916 7.51075C22.1554 8.91422 22.4998 10.4474 22.4999 12C22.4999 12.1989 22.4209 12.3897 22.2803 12.5303C22.1396 12.671 21.9488 12.75 21.7499 12.75C21.551 12.75 21.3603 12.671 21.2196 12.5303C21.0789 12.3897 20.9999 12.1989 20.9999 12C20.9997 10.252 20.4904 8.54188 19.5343 7.07853C18.5781 5.61519 17.2166 4.46194 15.6159 3.75964C14.0151 3.05734 12.2445 2.83639 10.5203 3.12377C8.79606 3.41115 7.19284 4.19443 5.90642 5.37793C4.62 6.56143 3.70607 8.09394 3.27625 9.78829C2.84643 11.4826 2.91932 13.2655 3.48602 14.9191C4.05272 16.5727 5.08871 18.0255 6.46744 19.1C7.84618 20.1746 9.508 20.8243 11.2499 20.97V19.4625C9.80583 19.3174 8.43486 18.7563 7.30329 17.8475C6.17173 16.9386 5.32818 15.7209 4.87497 14.3421C4.42175 12.9633 4.37834 11.4826 4.74998 10.0796C5.12163 8.67662 5.89238 7.4116 6.96874 6.43798C8.04511 5.46436 9.38085 4.82396 10.814 4.59446C12.2471 4.36496 13.716 4.55621 15.0426 5.14501C16.3692 5.73382 17.4964 6.69489 18.2876 7.91166C19.0788 9.12843 19.4999 10.5486 19.4999 12C19.4999 12.1989 19.4209 12.3897 19.2803 12.5303C19.1396 12.671 18.9488 12.75 18.7499 12.75C18.551 12.75 18.3603 12.671 18.2196 12.5303C18.0789 12.3897 17.9999 12.1989 17.9999 12C17.9998 10.8453 17.6665 9.71524 17.0401 8.74529C16.4136 7.77535 15.5206 7.00676 14.4682 6.53177C13.4157 6.05677 12.2486 5.89553 11.1068 6.06741C9.96501 6.23929 8.89705 6.73697 8.03109 7.50075C7.16513 8.26453 6.53795 9.26195 6.2248 10.3733C5.91165 11.4847 5.92584 12.6629 6.26566 13.7664C6.60548 14.8699 7.2565 15.8519 8.1406 16.5946C9.0247 17.3373 10.1043 17.8092 11.2499 17.9535V16.437C10.4045 16.2938 9.61755 15.9118 8.98191 15.3362C8.34628 14.7607 7.8884 14.0154 7.66222 13.1882C7.43605 12.3611 7.451 11.4865 7.70532 10.6676C7.95965 9.84862 8.44274 9.11944 9.09768 8.56591C9.75263 8.01239 10.5521 7.6576 11.402 7.54334C12.2519 7.42907 13.1167 7.5601 13.8946 7.92098C14.6725 8.28186 15.331 8.85756 15.7926 9.58024C16.2542 10.3029 16.4996 11.1425 16.4999 12C16.4999 12.1989 16.4209 12.3897 16.2803 12.5303C16.1396 12.671 15.9488 12.75 15.7499 12.75C15.551 12.75 15.3603 12.671 15.2196 12.5303C15.0789 12.3897 14.9999 12.1989 14.9999 12C15.0001 11.4389 14.8428 10.8889 14.5461 10.4127C14.2493 9.93647 13.8249 9.553 13.3212 9.30587C12.8174 9.05875 12.2544 8.95787 11.6961 9.01469C11.1379 9.07151 10.6068 9.28377 10.1631 9.62733C9.71945 9.9709 9.38104 10.432 9.18633 10.9583C8.99162 11.4845 8.94841 12.0549 9.06161 12.6045C9.17481 13.1541 9.43988 13.6609 9.82671 14.0674C10.2135 14.4739 10.7066 14.7637 11.2499 14.904V13.299C10.964 13.1339 10.7405 12.8791 10.6141 12.574C10.4877 12.2689 10.4656 11.9307 10.551 11.6117C10.6365 11.2928 10.8248 11.011 11.0868 10.8099C11.3488 10.6089 11.6697 10.5 11.9999 10.5C12.3301 10.5 12.6511 10.6089 12.9131 10.8099C13.175 11.011 13.3634 11.2928 13.4488 11.6117C13.5343 11.9307 13.5121 12.2689 13.3857 12.574C13.2594 12.8791 13.0359 13.1339 12.7499 13.299V23.25C12.7499 23.4489 12.6709 23.6397 12.5303 23.7803C12.3896 23.921 12.1988 24 11.9999 24C11.801 24 11.6103 23.921 11.4696 23.7803C11.3289 23.6397 11.2499 23.4489 11.2499 23.25V22.473C8.71512 22.2908 6.33243 21.1954 4.54381 19.39C2.75519 17.5846 1.68204 15.1918 1.52342 12.6554C1.36479 10.119 2.13145 7.61118 3.68119 5.59704C5.23093 3.58289 7.45858 2.19916 9.95093 1.70251Z" fill="color "/>
  </g>
  <defs>
    <clipPath id="clip0_2843_10861">
      <rect width="24" height="24" fill="white"/>
    </clipPath>
  </defs>
</svg>