<svg xmlns="http://www.w3.org/2000/svg" width="20" height="20" viewBox="0 0 20 20" fill="none">
  <path d="M14.8162 16.0785L15.6996 15.1941L18.7641 18.2551C19.0083 18.499 19.0086 18.8947 18.7646 19.1389C18.5207 19.3832 18.125 19.3834 17.8808 19.1395L14.8162 16.0785Z" fill="color"/>
  <path d="M9.78268 2.94644C11.1351 2.9452 12.4576 3.34512 13.5827 4.0956C14.7078 4.84608 15.585 5.9134 16.1034 7.16254C16.6219 8.41168 16.7581 9.78651 16.4951 11.1131C16.232 12.4397 15.5813 13.6585 14.6254 14.6153C13.6695 15.572 12.4514 16.2238 11.125 16.4881C9.79864 16.7524 8.42368 16.6173 7.17407 16.1001C5.92446 15.5828 4.85634 14.7065 4.10483 13.5821C3.35332 12.4577 2.9522 11.1356 2.9522 9.78317C2.9604 7.97356 3.68247 6.24031 4.96149 4.96013C6.2405 3.67995 7.97308 2.95629 9.78268 2.94644ZM9.78268 1.6665C8.17736 1.6665 6.60809 2.14254 5.27331 3.03441C3.93853 3.92628 2.89819 5.19393 2.28386 6.67706C1.66953 8.16018 1.5088 9.79217 1.82198 11.3667C2.13516 12.9411 2.9082 14.3874 4.04334 15.5225C5.17847 16.6577 6.62472 17.4307 8.1992 17.7439C9.77368 18.0571 11.4057 17.8963 12.8888 17.282C14.3719 16.6677 15.6396 15.6273 16.5314 14.2925C17.4233 12.9578 17.8993 11.3885 17.8993 9.78317C17.8993 7.6305 17.0442 5.56599 15.522 4.04382C13.9999 2.52165 11.9354 1.6665 9.78268 1.6665Z" fill="color"/>
</svg>