<svg xmlns="http://www.w3.org/2000/svg" width="20" height="20" viewBox="0 0 20 20" fill="none">
  <path fill-rule="evenodd" clip-rule="evenodd" d="M6.00128 14.5338C6.19212 14.5338 6.38295 14.5579 6.56961 14.6079C7.13295 14.7596 7.62212 15.1363 7.91212 15.6421C8.10045 15.9596 8.20462 16.3304 8.20795 16.7088C8.20795 17.2504 8.64295 17.6846 9.17795 17.6846H10.2221C10.7546 17.6846 11.1896 17.2529 11.1921 16.7204C11.1888 16.1321 11.4188 15.5729 11.8396 15.1521C12.2546 14.7371 12.8346 14.4879 13.4146 14.5046C13.7946 14.5138 14.1604 14.6163 14.4829 14.7996C14.9471 15.0654 15.5396 14.9071 15.8079 14.4488L16.3613 13.5263C16.4846 13.3138 16.5204 13.0471 16.4546 12.8013C16.3896 12.5554 16.2263 12.3421 16.0063 12.2163C15.4913 11.9196 15.1238 11.4413 14.9713 10.8679C14.8204 10.3054 14.9029 9.69128 15.1971 9.18545C15.3888 8.85211 15.6696 8.57128 16.0063 8.37795C16.4579 8.11378 16.6163 7.52295 16.3538 7.06295C16.3429 7.04461 16.3329 7.02545 16.3246 7.00545L15.8363 6.15878C15.5704 5.69628 14.9788 5.53711 14.5146 5.80128C14.0129 6.09795 13.4163 6.18295 12.8429 6.03211C12.2704 5.88378 11.7904 5.52128 11.4913 5.00961C11.2996 4.68961 11.1954 4.31711 11.1921 3.93795C11.1996 3.65295 11.0996 3.39711 10.9179 3.20961C10.7371 3.02295 10.4829 2.91711 10.2221 2.91711H9.17795C8.91961 2.91711 8.67795 3.01795 8.49545 3.19961C8.31378 3.38211 8.21462 3.62461 8.21628 3.88295C8.19878 5.10128 7.20295 6.08211 5.99712 6.08211C5.61045 6.07795 5.23795 5.97378 4.91462 5.78045C4.46045 5.52211 3.86712 5.68128 3.60128 6.14378L3.03712 7.07128C2.77878 7.51961 2.93712 8.11211 3.39712 8.37961C4.07962 8.77461 4.50545 9.51128 4.50545 10.3013C4.50545 11.0913 4.07962 11.8271 3.39545 12.2229C2.93795 12.4879 2.77962 13.0771 3.04462 13.5354L3.57045 14.4421C3.70045 14.6763 3.91295 14.8454 4.15878 14.9146C4.40378 14.9829 4.67378 14.9538 4.89878 14.8288C5.22962 14.6346 5.61462 14.5338 6.00128 14.5338ZM10.2221 18.9346H9.17795C7.95378 18.9346 6.95795 17.9396 6.95795 16.7154C6.95628 16.5646 6.91295 16.4079 6.83212 16.2721C6.70128 16.0438 6.48962 15.8804 6.24545 15.8154C6.00295 15.7504 5.73712 15.7863 5.51878 15.9129C4.99545 16.2046 4.37962 16.2754 3.81628 16.1171C3.25378 15.9579 2.76795 15.5713 2.48295 15.0588L1.96212 14.1613C1.35295 13.1046 1.71545 11.7504 2.77045 11.1404C3.06962 10.9679 3.25545 10.6463 3.25545 10.3013C3.25545 9.95628 3.06962 9.63378 2.77045 9.46128C1.71462 8.84795 1.35295 7.49045 1.96128 6.43378L2.52628 5.50628C3.12712 4.46128 4.48545 4.09295 5.54462 4.70128C5.68878 4.78711 5.84545 4.83045 6.00462 4.83211C6.52378 4.83211 6.95795 4.40378 6.96628 3.87711C6.96295 3.29628 7.19212 2.73878 7.60962 2.31795C8.02878 1.89795 8.58545 1.66711 9.17795 1.66711H10.2221C10.8188 1.66711 11.3988 1.91211 11.8146 2.33795C12.2296 2.76628 12.4588 3.35378 12.4413 3.94961C12.4429 4.08378 12.4871 4.23878 12.5671 4.37461C12.6996 4.59961 12.9088 4.75795 13.1571 4.82295C13.4054 4.88461 13.6654 4.85128 13.8863 4.72045C14.9529 4.11128 16.3104 4.47628 16.9196 5.53461L17.4388 6.43378C17.4521 6.45795 17.4638 6.48128 17.4738 6.50545C18.0254 7.54795 17.6571 8.86045 16.6321 9.45961C16.4829 9.54545 16.3621 9.66545 16.2788 9.81045C16.1496 10.0346 16.1138 10.3013 16.1788 10.5463C16.2454 10.7963 16.4046 11.0038 16.6288 11.1321C17.1346 11.4229 17.5121 11.9129 17.6629 12.4788C17.8138 13.0438 17.7313 13.6571 17.4371 14.1629L16.8838 15.0846C16.2746 16.1313 14.9171 16.4938 13.8613 15.8838C13.7204 15.8029 13.5579 15.7588 13.3963 15.7546H13.3913C13.1504 15.7546 12.9029 15.8571 12.7229 16.0363C12.5404 16.2188 12.4404 16.4621 12.4421 16.7204C12.4363 17.9446 11.4404 18.9346 10.2221 18.9346Z" fill="color"/>
  <path fill-rule="evenodd" clip-rule="evenodd" d="M9.7037 8.72886C8.83703 8.72886 8.13203 9.4347 8.13203 10.3014C8.13203 11.168 8.83703 11.8722 9.7037 11.8722C10.5704 11.8722 11.2754 11.168 11.2754 10.3014C11.2754 9.4347 10.5704 8.72886 9.7037 8.72886ZM9.7037 13.1222C8.14787 13.1222 6.88203 11.8572 6.88203 10.3014C6.88203 8.74553 8.14787 7.47886 9.7037 7.47886C11.2595 7.47886 12.5254 8.74553 12.5254 10.3014C12.5254 11.8572 11.2595 13.1222 9.7037 13.1222Z" fill="color"/>
</svg> 