<svg xmlns="http://www.w3.org/2000/svg" width="24" height="24" viewBox="0 0 24 24" fill="none">
  <path d="M8 3V5H6V9C6 10.0609 6.42143 11.0783 7.17157 11.8284C7.92172 12.5786 8.93913 13 10 13C11.0609 13 12.0783 12.5786 12.8284 11.8284C13.5786 11.0783 14 10.0609 14 9V5H12V3H15C15.2652 3 15.5196 3.10536 15.7071 3.29289C15.8946 3.48043 16 3.73478 16 4V9C15.9998 10.418 15.4976 11.7901 14.5824 12.8732C13.6672 13.9562 12.3981 14.6803 11 14.917V16.5C10.9992 17.3197 11.2862 18.1137 11.8108 18.7435C12.3354 19.3733 13.0645 19.799 13.8709 19.9463C14.6772 20.0937 15.5097 19.9533 16.2232 19.5498C16.9366 19.1462 17.4858 18.505 17.775 17.738C17.1316 17.4494 16.6105 16.9433 16.3031 16.3087C15.9956 15.6741 15.9216 14.9514 16.0939 14.2677C16.2663 13.5839 16.6739 12.9827 17.2454 12.5695C17.8169 12.1564 18.5156 11.9578 19.219 12.0086C19.9223 12.0594 20.5853 12.3563 21.0915 12.8472C21.5977 13.3381 21.9148 13.9917 21.9871 14.6931C22.0595 15.3946 21.8824 16.0991 21.487 16.6829C21.0916 17.2668 20.5032 17.6928 19.825 17.886C19.4875 19.1806 18.6898 20.3078 17.5813 21.0568C16.4728 21.8057 15.1293 22.1252 13.8023 21.9553C12.4753 21.7854 11.2557 21.1378 10.3716 20.1337C9.48748 19.1296 8.99953 17.8378 8.999 16.5V14.917C7.60111 14.6801 6.33223 13.9559 5.41722 12.8729C4.5022 11.7898 4.00014 10.4178 4 9V4C4 3.73478 4.10536 3.48043 4.29289 3.29289C4.48043 3.10536 4.73478 3 5 3H8Z" fill="color"/>
</svg>