<svg xmlns="http://www.w3.org/2000/svg" width="20" height="20" viewBox="0 0 20 20" fill="none">
  <path d="M8.12565 5.0001H15.209M8.12565 10.0001H15.209M8.12565 15.0001H15.209M5.41732 5.0001C5.41732 5.23022 5.23077 5.41677 5.00065 5.41677C4.77053 5.41677 4.58398 5.23022 4.58398 5.0001C4.58398 4.76998 4.77053 4.58344 5.00065 4.58344C5.23077 4.58344 5.41732 4.76998 5.41732 5.0001ZM5.41732 10.0001C5.41732 10.2302 5.23077 10.4168 5.00065 10.4168C4.77053 10.4168 4.58398 10.2302 4.58398 10.0001C4.58398 9.76998 4.77053 9.58343 5.00065 9.58343C5.23077 9.58343 5.41732 9.76998 5.41732 10.0001ZM5.41732 15.0001C5.41732 15.2302 5.23077 15.4168 5.00065 15.4168C4.77053 15.4168 4.58398 15.2302 4.58398 15.0001C4.58398 14.77 4.77053 14.5834 5.00065 14.5834C5.23077 14.5834 5.41732 14.77 5.41732 15.0001Z" stroke="color" stroke-width="1.5" stroke-linecap="round" stroke-linejoin="round"/>
</svg>