<svg xmlns="http://www.w3.org/2000/svg" width="21" height="20" viewBox="0 0 21 20" fill="none">
  <path fill-rule="evenodd" clip-rule="evenodd" d="M15.1378 18.7819H5.86283C3.82533 18.7819 2.16699 17.1244 2.16699 15.0861V11.0236C2.16699 8.98607 3.82533 7.32857 5.86283 7.32857H6.64033C6.98533 7.32857 7.26533 7.60857 7.26533 7.95357C7.26533 8.29857 6.98533 8.57857 6.64033 8.57857H5.86283C4.51366 8.57857 3.41699 9.67524 3.41699 11.0236V15.0861C3.41699 16.4352 4.51366 17.5319 5.86283 17.5319H15.1378C16.4862 17.5319 17.5837 16.4352 17.5837 15.0861V11.0161C17.5837 9.67191 16.4903 8.57857 15.147 8.57857H14.3612C14.0162 8.57857 13.7362 8.29857 13.7362 7.95357C13.7362 7.60857 14.0162 7.32857 14.3612 7.32857H15.147C17.1795 7.32857 18.8337 8.98274 18.8337 11.0161V15.0861C18.8337 17.1244 17.1753 18.7819 15.1378 18.7819Z" fill="color"/>
  <path fill-rule="evenodd" clip-rule="evenodd" d="M10.5003 12.9509C10.1553 12.9509 9.87533 12.6709 9.87533 12.3259V2.29175C9.87533 1.94675 10.1553 1.66675 10.5003 1.66675C10.8453 1.66675 11.1253 1.94675 11.1253 2.29175V12.3259C11.1253 12.6709 10.8453 12.9509 10.5003 12.9509Z" fill="color"/>
  <path fill-rule="evenodd" clip-rule="evenodd" d="M8.07092 5.35739C7.91175 5.35739 7.75175 5.29656 7.63009 5.17489C7.38592 4.93156 7.38425 4.53656 7.62842 4.29156L10.0576 1.85156C10.2918 1.61572 10.7084 1.61572 10.9426 1.85156L13.3726 4.29156C13.6159 4.53656 13.6151 4.93156 13.3709 5.17489C13.1259 5.41822 12.7309 5.41822 12.4876 5.17322L10.5001 3.17822L8.51342 5.17322C8.39175 5.29656 8.23092 5.35739 8.07092 5.35739Z" fill="color"/>
</svg>