<svg xmlns="http://www.w3.org/2000/svg" width="20" height="20" viewBox="0 0 20 20" fill="none">
  <path fill-rule="evenodd" clip-rule="evenodd" d="M9.93384 13.3302C6.38301 13.3302 4.58301 13.9402 4.58301 15.1443C4.58301 16.3593 6.38301 16.9752 9.93384 16.9752C13.4838 16.9752 15.283 16.3652 15.283 15.161C15.283 13.946 13.4838 13.3302 9.93384 13.3302ZM9.93384 18.2252C8.30134 18.2252 3.33301 18.2252 3.33301 15.1443C3.33301 12.3977 7.10051 12.0802 9.93384 12.0802C11.5663 12.0802 16.533 12.0802 16.533 15.161C16.533 17.9077 12.7663 18.2252 9.93384 18.2252Z" fill="color"/>
  <path fill-rule="evenodd" clip-rule="evenodd" d="M9.93384 2.8565C8.14967 2.8565 6.69801 4.30734 6.69801 6.0915C6.69217 7.86984 8.13301 9.31984 9.90967 9.3265L9.93384 9.9215V9.3265C11.7172 9.3265 13.168 7.87484 13.168 6.0915C13.168 4.30734 11.7172 2.8565 9.93384 2.8565ZM9.93384 10.5157H9.90718C7.47218 10.5082 5.49967 8.52234 5.50801 6.089C5.50801 3.6515 7.49301 1.6665 9.93384 1.6665C12.3738 1.6665 14.358 3.6515 14.358 6.0915C14.358 8.5315 12.3738 10.5157 9.93384 10.5157Z" fill="color"/>
</svg>