<svg xmlns="http://www.w3.org/2000/svg" width="18" height="17" viewBox="0 0 18 17" fill="none">
  <mask id="mask0_1437_36896" style="mask-type:luminance" maskUnits="userSpaceOnUse" x="0" y="10" width="14" height="7">
    <path fill-rule="evenodd" clip-rule="evenodd" d="M0.666992 10.6309H13.3202V16.5472H0.666992V10.6309Z" fill="white"/>
  </mask>
  <g mask="url(#mask0_1437_36896)">
    <path fill-rule="evenodd" clip-rule="evenodd" d="M6.99366 11.8809C4.67783 11.8809 1.91699 12.1784 1.91699 13.5992C1.91699 14.7259 3.62533 15.2975 6.99366 15.2975C10.362 15.2975 12.0703 14.72 12.0703 13.5825C12.0703 12.4534 10.362 11.8809 6.99366 11.8809ZM6.99366 16.5475C5.26366 16.5475 0.666992 16.5475 0.666992 13.5992C0.666992 10.6309 5.42866 10.6309 6.99366 10.6309C9.70949 10.6309 13.3203 10.9367 13.3203 13.5825C13.3203 16.5475 8.55866 16.5475 6.99366 16.5475Z" fill="color"/>
  </g>
  <path fill-rule="evenodd" clip-rule="evenodd" d="M6.99387 1.91675C5.32303 1.91675 3.96387 3.27591 3.96387 4.94591C3.96387 6.61591 5.32303 7.97508 6.99387 7.97508H7.0197C7.82303 7.97175 8.5797 7.65591 9.1472 7.08342C9.71553 6.51258 10.0264 5.75342 10.023 4.94841C10.023 3.27591 8.66387 1.91675 6.99387 1.91675ZM6.99387 9.22508C4.63387 9.22508 2.71387 7.30508 2.71387 4.94591C2.71387 2.58675 4.63387 0.666748 6.99387 0.666748C9.35303 0.666748 11.273 2.58675 11.273 4.94591C11.278 6.08258 10.8372 7.15591 10.0339 7.96425C9.2322 8.77341 8.16137 9.22091 7.0222 9.22508H6.99387Z" fill="color"/>
  <path fill-rule="evenodd" clip-rule="evenodd" d="M12.7357 8.27647C12.429 8.27647 12.1615 8.05064 12.1174 7.73814C12.0699 7.39647 12.3074 7.0798 12.649 7.03231C13.689 6.88647 14.474 5.98397 14.4757 4.93231C14.4757 3.88731 13.7274 3.00564 12.6982 2.8373C12.3574 2.78064 12.1265 2.4598 12.1824 2.11897C12.2382 1.77814 12.5607 1.54897 12.8999 1.60314C14.5374 1.87147 15.7257 3.2723 15.7257 4.93314C15.7224 6.60397 14.4749 8.03897 12.8232 8.27064C12.794 8.27481 12.7649 8.27647 12.7357 8.27647Z" fill="color"/>
  <mask id="mask1_1437_36896" style="mask-type:luminance" maskUnits="userSpaceOnUse" x="13" y="10" width="5" height="5">
    <path fill-rule="evenodd" clip-rule="evenodd" d="M13.8711 10.2363H17.3159V14.3843H13.8711V10.2363Z" fill="white"/>
  </mask>
  <g mask="url(#mask1_1437_36896)">
    <path fill-rule="evenodd" clip-rule="evenodd" d="M15.5797 14.3843C15.3272 14.3843 15.0897 14.2301 14.9955 13.9809C14.873 13.6584 15.0355 13.2968 15.358 13.1751C16.0663 12.9068 16.0663 12.5793 16.0663 12.4393C16.0663 11.9668 15.5072 11.6434 14.4047 11.4793C14.063 11.4276 13.8272 11.1093 13.878 10.7684C13.9297 10.4268 14.2538 10.1976 14.5888 10.2418C16.8438 10.5793 17.3163 11.6234 17.3163 12.4393C17.3163 13.0468 17.0538 13.8693 15.8013 14.3434C15.7288 14.3709 15.6538 14.3843 15.5797 14.3843Z" fill="color"/>
  </g>
</svg>