<svg xmlns="http://www.w3.org/2000/svg" width="19" height="15" viewBox="0 0 19 15" fill="none">
  <path fill-rule="evenodd" clip-rule="evenodd" d="M14.9056 7.12205C14.599 7.12205 14.3315 6.89621 14.2873 6.58371C14.2398 6.24121 14.4773 5.92538 14.8198 5.87788C15.6865 5.75621 16.3406 5.00455 16.3423 4.12788C16.3423 3.25871 15.719 2.52371 14.8598 2.38288C14.5198 2.32705 14.289 2.00538 14.3448 1.66455C14.4015 1.32371 14.7206 1.09538 15.0631 1.14955C16.5281 1.39038 17.5923 2.64371 17.5923 4.12955C17.589 5.62538 16.4715 6.90871 14.9923 7.11621C14.9631 7.12038 14.934 7.12205 14.9056 7.12205Z" fill="color"/>
  <mask id="mask0_1437_36928" style="mask-type:luminance" maskUnits="userSpaceOnUse" x="15" y="8" width="4" height="5">
    <path fill-rule="evenodd" clip-rule="evenodd" d="M15.8145 8.66797H18.9761V12.4426H15.8145V8.66797Z" fill="white"/>
  </mask>
  <g mask="url(#mask0_1437_36928)">
    <path fill-rule="evenodd" clip-rule="evenodd" d="M17.3838 12.4426C17.1322 12.4426 16.8947 12.2893 16.7997 12.0401C16.6763 11.7176 16.8388 11.3559 17.1613 11.2334C17.7263 11.0184 17.7263 10.7809 17.7263 10.6668C17.7263 10.3018 17.2622 10.0468 16.3472 9.91011C16.0063 9.85844 15.7705 9.54094 15.8213 9.19844C15.8722 8.85678 16.1888 8.62928 16.533 8.67344C18.5522 8.97594 18.9763 9.92428 18.9763 10.6668C18.9763 11.1201 18.798 11.9476 17.6063 12.4018C17.533 12.4293 17.458 12.4426 17.3838 12.4426Z" fill="color"/>
  </g>
  <path fill-rule="evenodd" clip-rule="evenodd" d="M9.90529 10.2615C7.92529 10.2615 5.56445 10.5048 5.56445 11.6631C5.56445 12.8306 7.92529 13.0756 9.90529 13.0756C11.8853 13.0756 14.2453 12.8331 14.2453 11.6773C14.2453 10.5073 11.8853 10.2615 9.90529 10.2615ZM9.90529 14.3256C8.52279 14.3256 4.31445 14.3256 4.31445 11.6631C4.31445 9.01147 8.52279 9.01147 9.90529 9.01147C11.2878 9.01147 15.4953 9.01147 15.4953 11.6773C15.4953 14.3256 11.4345 14.3256 9.90529 14.3256Z" fill="color"/>
  <path fill-rule="evenodd" clip-rule="evenodd" d="M9.90533 1.58325C8.49533 1.58325 7.34867 2.73075 7.34867 4.14075C7.34617 4.82409 7.60783 5.46325 8.087 5.94575C8.56617 6.42825 9.2045 6.69575 9.8845 6.69825L9.90533 7.32325V6.69825C11.3153 6.69825 12.4628 5.55159 12.4628 4.14075C12.4628 2.73075 11.3153 1.58325 9.90533 1.58325ZM9.90533 7.94825H9.88283C8.86617 7.94492 7.91367 7.54659 7.20033 6.82659C6.48533 6.10742 6.0945 5.15242 6.09867 4.13825C6.09867 2.04159 7.80617 0.333252 9.90533 0.333252C12.0053 0.333252 13.7128 2.04159 13.7128 4.14075C13.7128 6.23992 12.0053 7.94825 9.90533 7.94825Z" fill="color"/>
  <path fill-rule="evenodd" clip-rule="evenodd" d="M4.90458 7.12196C4.87625 7.12196 4.84708 7.12029 4.81792 7.11613C3.33875 6.90863 2.22208 5.62529 2.21875 4.13113C2.21875 2.64363 3.28292 1.39029 4.74792 1.14946C5.09875 1.09446 5.40958 1.32529 5.46625 1.66446C5.52208 2.00529 5.29125 2.32696 4.95125 2.38279C4.09208 2.52363 3.46875 3.25863 3.46875 4.12946C3.47042 5.00446 4.12458 5.75696 4.99042 5.87779C5.33292 5.92529 5.57042 6.24113 5.52292 6.58363C5.47875 6.89613 5.21125 7.12196 4.90458 7.12196Z" fill="color"/>
  <path fill-rule="evenodd" clip-rule="evenodd" d="M2.42634 12.4427C2.35217 12.4427 2.27717 12.4293 2.20384 12.4018C1.01134 11.9468 0.833008 11.1193 0.833008 10.6668C0.833008 9.92518 1.25717 8.97601 3.27717 8.67351C3.62134 8.63018 3.93634 8.85685 3.98801 9.19851C4.03884 9.54101 3.80301 9.85851 3.46217 9.91018C2.54717 10.0468 2.08301 10.3018 2.08301 10.6668C2.08301 10.781 2.08301 11.0177 2.64884 11.2335C2.97134 11.356 3.13384 11.7177 3.01051 12.0402C2.91551 12.2893 2.67801 12.4427 2.42634 12.4427Z" fill="color"/>
</svg>