<svg width="319" height="340" viewBox="0 0 319 340" fill="none" xmlns="http://www.w3.org/2000/svg">
<path d="M179.273 0H21.25C9.51395 0 0 9.51395 0 21.25V323C0 332.389 7.61117 340 17 340H99.2955C111.032 340 120.545 330.486 120.545 318.75V239.545C120.545 230.157 128.157 222.545 137.545 222.545H211.425C230.357 222.545 239.838 245.435 226.451 258.821L145.273 340H297.114C308.85 340 318.364 330.486 318.364 318.75V17C318.364 7.61116 310.753 0 301.364 0H228.341C216.605 0 207.091 9.51393 207.091 21.25V106.636C207.091 116.025 199.48 123.636 190.091 123.636H109.125C90.3225 123.636 80.7839 101.014 93.9098 87.5517L179.273 0Z" fill="#007AFF"/>
</svg>
