<svg width="1024" height="1024" viewBox="0 0 1024 1024" fill="none" xmlns="http://www.w3.org/2000/svg">
<g clip-path="url(#clip0_10_10308)">
<rect width="1024" height="1024" fill="white"/>
<rect width="1024" height="1024" fill="white"/>
<rect width="1024" height="1024" fill="#B9DBFF"/>
<path d="M547.592 210.864H267.646C246.855 210.864 230 227.719 230 248.51V783.078C230 799.711 243.484 813.194 260.117 813.194H405.908C426.699 813.194 443.553 796.34 443.553 775.549V635.233C443.553 618.6 457.037 605.117 473.67 605.117H604.552C638.091 605.117 654.887 645.666 631.172 669.382L487.359 813.194H756.354C777.146 813.194 794 796.34 794 775.549V240.981C794 224.348 780.516 210.864 763.884 210.864H634.519C613.728 210.864 596.874 227.719 596.874 248.51V399.777C596.874 416.41 583.39 429.893 566.757 429.893H423.321C390.012 429.893 373.113 389.817 396.367 365.967L547.592 210.864Z" fill="#007AFF"/>
</g>
<defs>
<clipPath id="clip0_10_10308">
<rect width="1024" height="1024" fill="white"/>
</clipPath>
</defs>
</svg>
